HIERARCHY
ROOT Hips
{
  OFFSET 3.13124 94.3669 -3.18751
  CHANNELS  6 Xposition Yposition Zposition Zrotation Xrotation Yrotation
  JOINT LeftUpLeg
  {
    OFFSET 8.64259 1.95398 -2.38835
    CHANNELS 3 Zrotation Xrotation Yrotation
    JOINT LeftLeg
    {
      OFFSET 43.7702 0 0
      CHANNELS 3 Zrotation Xrotation Yrotation
      JOINT LeftFoot
      {
        OFFSET 40.6238 0 0
        CHANNELS 3 Zrotation Xrotation Yrotation
        JOINT LeftToeBase
        {
          OFFSET 12.7242 0 0
          CHANNELS 3 Zrotation Xrotation Yrotation
          End Site
          {
            OFFSET 0 0 0
          }
        }
      }
    }
  }
  JOINT RightUpLeg
  {
    OFFSET -8.2249 1.95398 -2.59336
    CHANNELS 3 Zrotation Xrotation Yrotation
    JOINT RightLeg
    {
      OFFSET 43.5653 0 0
      CHANNELS 3 Zrotation Xrotation Yrotation
      JOINT RightFoot
      {
        OFFSET 40.6238 0 0
        CHANNELS 3 Zrotation Xrotation Yrotation
        JOINT RightToeBase
        {
          OFFSET 12.7242 0 0
          CHANNELS 3 Zrotation Xrotation Yrotation
          End Site
          {
            OFFSET 0 0 0
          }
        }
      }
    }
  }
  JOINT Spine
  {
    OFFSET 0.165834 0.87714 6.61349
    CHANNELS 3 Zrotation Xrotation Yrotation
    JOINT Spine1
    {
      OFFSET 7.38962 1.71661e-005 0
      CHANNELS 3 Zrotation Xrotation Yrotation
      JOINT Spine2
      {
        OFFSET 11.9445 1.14441e-005 0
        CHANNELS 3 Zrotation Xrotation Yrotation
        JOINT Spine3
        {
          OFFSET 14.7254 4.19617e-005 0
          CHANNELS 3 Zrotation Xrotation Yrotation
          JOINT Spine4
          {
            OFFSET 10.9679 0 0
            CHANNELS 3 Zrotation Xrotation Yrotation
            JOINT RightShoulder
            {
              OFFSET 2.46616 -1.6653 3.69651
              CHANNELS 3 Zrotation Xrotation Yrotation
              JOINT RightArm
              {
                OFFSET 13.0012 0 0
                CHANNELS 3 Zrotation Xrotation Yrotation
                JOINT RightForeArm
                {
                  OFFSET 28.7848 1.52588e-005 0
                  CHANNELS 3 Zrotation Xrotation Yrotation
                  JOINT RightHand
                  {
                    OFFSET 26.5688 1.52588e-005 0
                    CHANNELS 3 Zrotation Xrotation Yrotation
                    End Site
                    {
                      OFFSET 0 0 0
                    }
                  }
                }
              }
            }
            JOINT LeftShoulder
            {
              OFFSET 2.38034 -1.29275 -3.75231
              CHANNELS 3 Zrotation Xrotation Yrotation
              JOINT LeftArm
              {
                OFFSET 16.3182 6.10352e-005 0
                CHANNELS 3 Zrotation Xrotation Yrotation
                JOINT LeftForeArm
                {
                  OFFSET 27.0901 0 0
                  CHANNELS 3 Zrotation Xrotation Yrotation
                  JOINT LeftHand
                  {
                    OFFSET 24.5451 1.52588e-005 0
                    CHANNELS 3 Zrotation Xrotation Yrotation
                    End Site
                    {
                      OFFSET 0 0 0
                    }
                  }
                }
              }
            }
            JOINT Neck
            {
              OFFSET 5.0226 -0.0266342 0
              CHANNELS 3 Zrotation Xrotation Yrotation
              JOINT Head
              {
                OFFSET 6.69363 2.86102e-005 0
                CHANNELS 3 Zrotation Xrotation Yrotation
                End Site
                {
                  OFFSET 0 0 0
                }
              }
            }
          }
        }
      }
    }
  }
}
MOTION
Frames:	18
Frame Time:	0.0333333
77.7447 99.925 -163.385 -96.5822 2.77092 -84.6778 -178.532 27.2758 100.513 -26.7763 28.0814 8.84873 1.04113 -11.9638 -24.289 28.7808 6.04754e-006 3.07037e-006 170.199 13.0444 94.406 -29.5432 7.38362 -0.585986 4.16676 -34.8028 -54.2818 28.7808 1.33842e-005 2.34416e-005 0.343844 9.41526 -97.4567 7.85295 -3.45652 -8.24144 -3.8385 -3.81473 -8.08277 -26.1687 -0.830861 -8.89389 -6.15602 -0.830883 -8.89391 92.9191 -38.2459 -98.747 18.4597 -19.399 -30.4038 -3.7095 -0.284589 -119.353 -5.37982 -0.320016 -0.0162373 -92.4319 -28.7143 68.1834 -39.0495 33.2576 -28.1222 6.13742 18.6862 -48.8058 -20.7253 2.01554 -17.353 -25.1807 12.6001 -43.1783 -17.1165 4.52849 37.063 
77.4394 100.081 -163.365 -96.7861 1.51993 -85.5584 -178.489 26.037 100.303 -22.141 16.9198 6.99706 -6.79751 -12.1129 -29.1604 28.7808 6.04754e-006 3.07037e-006 169.238 12.7317 93.2119 -30.0314 7.15628 -0.324964 6.4396 -35.0746 -52.6259 28.7808 1.33842e-005 2.34416e-005 0.471037 9.28675 -97.6174 8.11603 -3.33503 -7.92203 -3.57384 -3.67941 -7.76886 -25.9197 -0.809764 -8.55331 -5.90701 -0.809767 -8.55331 93.3104 -40.2274 -97.61 18.4614 -19.1041 -30.8682 -3.70711 -0.285604 -118.873 -5.37982 -0.320016 -0.0162373 -92.3063 -28.5802 68.3668 -39.428 33.4382 -27.9022 7.90786 19.9612 -49.0964 -21.2812 2.12088 -17.5769 -27.4939 12.9235 -41.2382 -14.8372 5.19398 35.0207 
77.2458 100.379 -163.251 -97.2156 -0.423629 -87.6257 -178.688 24.2301 97.6346 -21.6715 28.1868 6.99589 0.00864898 -11.9224 -24.683 28.7808 6.04754e-006 3.07037e-006 167.726 12.3287 90.6487 -30.2751 6.99545 0.0222356 7.57683 -35.2338 -51.8417 28.7808 1.33842e-005 2.34416e-005 0.451804 9.19846 -97.5284 8.31812 -3.2775 -7.31451 -3.36844 -3.5954 -7.16421 -25.7435 -0.935542 -7.95713 -5.73087 -0.935546 -7.95715 94.191 -42.7489 -95.5935 18.0358 -19.1838 -32.2319 -3.70402 -0.286908 -118.255 -5.37982 -0.320016 -0.0162373 -92.0468 -27.6233 68.4643 -39.7699 33.6402 -28.1332 10.8051 21.8057 -49.4299 -23.1743 2.87565 -20.4293 -27.0457 11.1004 -40.7645 -16.4079 3.28371 32.9794 
77.4355 100.375 -163.243 -97.5777 -1.28694 -89.7327 -178.897 22.3468 95.3427 -22.3745 47.0273 8.30575 8.66347 -11.7452 -20.2082 28.7808 6.04754e-006 3.07037e-006 166.452 12.8001 88.2744 -30.9654 5.81735 0.359669 3.7435 -35.5714 -55.705 28.7808 1.33842e-005 2.34416e-005 0.526799 9.16641 -97.51 8.39811 -3.0975 -6.75379 -3.28597 -3.39108 -6.61176 -25.6851 -0.930755 -7.36901 -5.67244 -0.930748 -7.36901 94.9182 -44.161 -94.1312 17.4741 -19.1086 -34.0424 -3.70046 -0.288339 -117.546 -5.37982 -0.320016 -0.0162373 -91.874 -27.9232 68.925 -39.4084 33.9441 -28.6144 9.85453 21.6115 -49.3249 -21.9144 2.24825 -17.8957 -27.564 10.858 -39.9987 -15.196 3.55923 30.6755 
77.7501 100.309 -163.519 -97.426 -2.44482 -90.0592 -179.078 22.372 95.1596 -21.1924 46.9391 7.8324 8.9431 -11.5915 -19.8512 28.7808 6.04754e-006 3.07037e-006 166.339 13.5501 88.2393 -32.0244 7.45812 0.258656 7.54008 -35.8226 -52.679 28.7808 1.33842e-005 2.34416e-005 0.725734 9.18 -97.6857 8.35952 -2.88559 -6.59011 -3.32427 -3.17226 -6.45748 -25.729 -0.777325 -7.14971 -5.71634 -0.777319 -7.14971 95.9158 -45.8151 -92.2402 16.4013 -19.1875 -36.8564 -3.6974 -0.289572 -116.938 -5.37982 -0.320016 -0.0162373 -91.7259 -28.0462 69.2612 -39.1428 34.1334 -29.1352 10.7285 22.1068 -49.617 -22.8439 2.35622 -17.8586 -25.8674 9.84095 -41.7835 -15.9508 2.73358 30.5904 
78.0095 100.185 -163.791 -97.3061 -4.4861 -89.8483 -179.546 22.9527 95.0368 -21.5109 47.7429 8.18251 9.40994 -11.2716 -19.19 28.7808 6.04754e-006 3.07037e-006 166.504 13.6251 88.7472 -32.2819 9.96475 0.331303 8.20478 -35.8412 -52.1862 28.7808 1.33842e-005 2.34416e-005 0.677783 9.30307 -97.5924 8.12603 -3.02794 -6.34185 -3.55619 -3.30358 -6.20315 -25.9723 -0.987214 -6.95559 -5.95963 -0.98722 -6.95559 94.9735 -48.471 -93.3816 15.7601 -18.5347 -39.3406 -3.69242 -0.291418 -115.96 -5.37982 -0.320016 -0.0162373 -91.2891 -26.0198 69.2762 -39.9169 33.6814 -29.1275 11.4704 21.832 -49.7959 -23.4882 2.49504 -18.175 -24.1073 9.47933 -45.2781 -17.1175 2.18712 32.386 
78.4505 99.9749 -164.056 -97.0569 -6.30436 -89.5245 179.953 23.903 95.01 -22.1736 48.2577 8.58453 9.9018 -10.8679 -18.4082 28.7808 6.04754e-006 3.07037e-006 166.898 14.1387 89.466 -32.8518 12.455 0.310873 9.35399 -35.8389 -51.2685 28.7808 1.33842e-005 2.34416e-005 0.695852 9.42789 -97.6424 7.87107 -3.12807 -6.44872 -3.8114 -3.40831 -6.30554 -26.2239 -1.05088 -7.08734 -6.2112 -1.05091 -7.08738 94.7108 -48.9497 -93.7237 15.2917 -17.2922 -41.6113 -3.689 -0.292659 -115.288 -5.37982 -0.320016 -0.0162373 -91.1246 -26.389 69.7573 -39.2954 34.0439 -29.7788 13.3468 23.2417 -50.309 -23.957 2.8876 -19.902 -22.148 8.69116 -46.2209 -16.8784 2.11411 32.7281 
78.8859 99.7084 -164.298 -97.0403 -8.21921 -89.4313 179.329 24.6383 94.7691 -22.6918 49.204 9.01431 9.42599 -10.7732 -18.4406 28.7808 6.04754e-006 3.07037e-006 167.109 14.6751 89.8578 -33.8194 15.0976 0.329156 10.5577 -36.0365 -50.601 28.7808 1.33842e-005 2.34416e-005 0.710254 9.63047 -97.7391 7.46314 -3.2616 -6.50189 -4.21925 -3.54399 -6.35282 -26.6306 -1.16248 -7.17793 -6.61793 -1.16247 -7.17794 94.3041 -49.832 -94.2237 14.8815 -15.9087 -43.7541 -3.68675 -0.293463 -114.847 -5.37982 -0.320016 -0.0162373 -91.1202 -26.7352 69.9088 -38.6634 34.1053 -30.3903 13.6022 23.4144 -50.3555 -24.9275 3.02177 -19.8851 -19.6808 7.62598 -48.4552 -18.9293 1.39835 32.6661 
79.3944 99.3772 -164.596 -97.3053 -10.0136 -89.599 178.763 25.1252 94.4224 -23.2038 49.4793 9.22541 9.84952 -10.5762 -17.9839 28.7808 6.04754e-006 3.07037e-006 167.172 15.2831 89.9813 -35.2074 17.4724 0.357114 11.8753 -36.2382 -49.8526 28.7808 1.33842e-005 2.34416e-005 0.729673 9.87846 -97.8616 6.96801 -3.37533 -6.45998 -4.71384 -3.65577 -6.30595 -27.128 -1.28353 -7.17198 -7.11535 -1.28349 -7.17195 93.7034 -51.0121 -94.9617 14.7811 -14.2892 -45.2347 -3.68582 -0.293719 -114.663 -5.37982 -0.320016 -0.0162373 -91.0048 -26.7103 70.1268 -38.1477 34.2973 -31.0455 13.6377 23.6518 -50.3157 -25.0638 3.01387 -19.7515 -16.4056 4.8682 -51.7109 -22.3604 -0.621525 30.767 
79.929 99.0222 -164.878 -97.273 -11.6325 -89.6721 178.264 25.9578 94.1917 -23.6727 49.393 9.31598 10.3575 -10.5398 -17.7413 28.7808 6.04754e-006 3.07037e-006 167.308 16.2362 90.1717 -36.6428 19.8821 0.427973 13.4971 -36.4932 -48.9555 28.7808 1.33842e-005 2.34416e-005 0.819641 10.0917 -98.0005 6.53205 -3.39473 -6.50364 -5.14995 -3.67712 -6.34871 -27.5624 -1.28902 -7.21936 -7.54978 -1.28901 -7.21935 93.4163 -52.0958 -95.2212 14.8312 -12.7267 -46.2656 -3.68579 -0.292028 -114.657 -5.37982 -0.320016 -0.0162373 -90.9952 -27.0197 70.2712 -37.4301 34.5186 -31.7096 12.4349 23.093 -50.0123 -24.7963 2.89093 -19.3285 -14.9404 3.59995 -53.8746 -22.6742 -1.35565 31.2243 
80.5177 98.5946 -165.133 -97.2768 -12.9984 -89.8628 177.935 26.7803 93.8402 -24.0199 49.5663 9.28609 10.3943 -10.4123 -17.5325 28.7808 6.04754e-006 3.07037e-006 167.356 17.4316 90.1543 -38.5183 21.8346 0.569632 15.9315 -36.7718 -47.4795 28.7808 1.33842e-005 2.34416e-005 0.922171 10.3159 -98.1196 6.07432 -3.35735 -6.50439 -5.60782 -3.63978 -6.35111 -28.0199 -1.25311 -7.20891 -8.00725 -1.2531 -7.2089 92.71 -53.3857 -96.0606 15.1902 -11.1236 -46.4957 -3.68661 -0.290957 -114.819 -5.37982 -0.320016 -0.0162373 -90.99 -26.9777 70.2644 -37.4408 34.508 -31.7666 12.3791 22.7697 -50.2134 -24.3609 2.89147 -19.6312 -14.0191 2.75626 -55.6377 -21.9353 -1.45288 30.8928 
81.1818 98.1112 -165.46 -97.4218 -14.2477 -89.9788 177.672 27.6707 93.6411 -24.8908 49.8997 9.44272 11.0819 -10.3254 -17.1632 28.7808 6.04754e-006 3.07037e-006 167.435 18.5032 90.2103 -40.2237 24.16 0.845573 16.4291 -37.199 -47.6964 28.7808 1.33842e-005 2.34416e-005 0.996952 10.5819 -98.2058 5.53287 -3.31666 -6.58329 -6.14977 -3.60259 -6.43175 -28.5581 -1.19076 -7.27195 -8.54545 -1.19075 -7.27194 91.3327 -54.4798 -97.8874 15.5954 -9.35458 -46.7103 -3.68792 -0.293099 -115.079 -5.37982 -0.320016 -0.0162373 -91.0479 -27.6494 70.42 -36.6337 34.5967 -32.0384 12.7727 22.6222 -50.8757 -23.8946 2.87993 -19.9058 -13.2905 2.0831 -56.6745 -21.0096 -1.3992 30.3886 
81.9782 97.5575 -165.832 -97.0293 -14.6186 -90.2037 177.66 28.8945 93.5073 -24.8095 49.7899 8.95598 10.8633 -10.1811 -17.0092 28.7808 6.04754e-006 3.07037e-006 167.5 20.4771 90.2139 -42.1114 24.7851 0.896837 17.0948 -37.3508 -47.3938 28.7808 1.33842e-005 2.34416e-005 1.22695 10.8219 -98.3209 5.03211 -3.15082 -6.48579 -6.65048 -3.43265 -6.34162 -29.0615 -1.06155 -7.1295 -9.04889 -1.06157 -7.1295 90.0798 -55.2523 -99.5503 16.1413 -7.75094 -46.8031 -3.68638 -0.29359 -114.776 -5.37982 -0.320016 -0.0162373 -90.8497 -27.6431 70.8047 -36.0226 34.8498 -32.2892 13.9368 22.3958 -52.0189 -24.2093 2.98306 -20.2053 -12.4249 1.34743 -57.3391 -20.4927 -1.41632 29.6954 
82.7365 97.0722 -166.241 -97.0127 -14.9798 -90.0526 177.807 29.9147 93.6452 -25.1394 48.3556 8.55113 10.8589 -9.62253 -16.2076 28.7808 6.04754e-006 3.07037e-006 167.427 21.69 90.3779 -43.7327 25.6169 1.48921 17.4974 -37.6833 -47.5156 28.7808 1.33842e-005 2.34416e-005 1.38441 11.1713 -98.3552 4.31672 -2.97363 -6.50412 -7.36641 -3.2564 -6.36769 -29.7754 -0.886968 -7.09404 -9.76271 -0.886979 -7.09403 87.49 -55.4422 -103.227 16.8134 -5.98065 -46.1953 -3.68865 -0.292796 -115.216 -5.37982 -0.320016 -0.0162373 -90.6067 -27.8993 71.3784 -34.7277 35.0448 -33.0159 14.9428 22.2469 -53.1585 -23.6537 2.95766 -20.4886 -11.4889 0.632118 -57.9849 -19.5751 -1.29806 29.1457 
83.5974 96.5748 -166.57 -96.7036 -15.1941 -89.8874 177.857 31.1307 93.6955 -25.2464 46.3804 7.97227 10.9492 -8.66501 -14.7883 28.7808 6.04754e-006 3.07037e-006 167.284 23.2928 90.431 -45.3487 26.0707 2.108 17.9585 -37.9283 -47.4741 28.7808 1.33842e-005 2.34416e-005 1.58058 11.5284 -98.4562 3.58014 -2.83294 -6.54867 -8.10355 -3.11779 -6.41837 -30.5097 -0.739426 -7.09448 -10.497 -0.739413 -7.09449 86.1456 -55.0514 -105.253 17.2461 -4.65283 -46.3748 -3.68696 -0.293385 -114.886 -5.37982 -0.320016 -0.0162373 -90.0205 -28.6926 72.8124 -33.318 35.6171 -34.3112 15.1551 21.7038 -54.2501 -22.9918 2.66646 -19.4404 -9.86305 -0.329011 -57.601 -19.5114 -1.25544 28.2064 
84.5185 96.103 -166.895 -96.3145 -15.0919 -89.8535 177.888 32.1522 93.8175 -24.5604 45.1606 7.39605 9.83613 -8.59353 -15.0175 28.7808 6.04754e-006 3.07037e-006 167.088 24.9901 90.3333 -46.75 26.1224 2.75293 17.5035 -38.1703 -48.1064 28.7808 1.33842e-005 2.34416e-005 1.83818 11.886 -98.52 2.83708 -2.6287 -6.50179 -8.84685 -2.91172 -6.38049 -31.2538 -0.5585 -6.98879 -11.2412 -0.558489 -6.98881 84.8373 -54.421 -107.307 17.7084 -3.25435 -46.3609 -3.68661 -0.293491 -114.82 -5.37982 -0.320016 -0.0162373 -89.5568 -29.1391 73.8653 -31.6663 36.3445 -35.6458 16.6459 21.6083 -55.9285 -21.8745 2.35273 -18.5182 -8.18174 -1.29888 -57.1752 -18.9884 -1.07302 27.0737 
85.3843 95.7232 -167.229 -95.1905 -15.126 -89.6276 177.854 33.4881 93.9553 -23.3516 44.0533 6.77695 9.33986 -8.17633 -14.5364 28.7808 6.04754e-006 3.07037e-006 166.884 27.1124 90.3359 -47.7875 26.2361 3.52486 17.153 -38.4189 -48.675 28.7808 1.33842e-005 2.34416e-005 2.15746 12.1454 -98.5498 2.28287 -2.40405 -6.43726 -9.40123 -2.68447 -6.32586 -31.8098 -0.363345 -6.86021 -11.7971 -0.363361 -6.86019 83.503 -53.9459 -109.371 18.0249 -2.04536 -46.8855 -3.68416 -0.294326 -114.344 -5.37982 -0.320016 -0.0162373 -89.245 -29.5696 74.6095 -29.875 37.1577 -37.0187 17.6049 21.5366 -57.3329 -19.7707 1.97322 -17.775 -7.27209 -1.92929 -57.237 -17.8537 -0.858448 26.3115 
86.3098 95.334 -167.663 -93.9368 -14.6719 -89.4438 177.96 34.7375 94.3183 -21.4384 42.7285 5.98873 7.83798 -8.29644 -15.1644 28.7808 6.04754e-006 3.07037e-006 166.958 29.452 90.6322 -48.5075 26.0284 3.8554 15.9378 -38.4269 -49.6161 28.7808 1.33842e-005 2.34416e-005 2.5623 12.4303 -98.6274 1.66364 -2.11892 -6.45355 -10.0211 -2.40037 -6.35463 -32.4281 -0.0863639 -6.79056 -12.4155 -0.0863923 -6.79057 82.6421 -52.5239 -111.084 18.446 -0.409338 -47.3394 -3.68341 -0.294577 -114.195 -5.37982 -0.320016 -0.0162373 -88.9452 -30.9985 75.6376 -26.9994 38.0803 -39.5364 18.9573 21.6006 -59.4264 -17.9396 1.137 -13.3418 -6.1836 -2.17359 -55.9381 -16.3847 -0.199776 25.1742 
